REM MD5 c067845130600cf19603781127ce9624
FILE "Hyper PlayStation Re-mix 1999 No. 7 (Japan).bin" BINARY
  TRACK 01 MODE2/2352
    INDEX 01 00:00:00
  TRACK 02 AUDIO
    INDEX 00 64:28:23
    INDEX 01 64:31:23
  TRACK 03 AUDIO
    INDEX 00 64:35:73
    INDEX 01 64:38:73
REM LEADOUT 68:10:63
